<?xml version="1.0" encoding="utf-8"?>
<!-- Generator: Adobe Illustrator 16.0.4, SVG Export Plug-In . SVG Version: 6.00 Build 0)  -->
<!DOCTYPE svg PUBLIC "-//W3C//DTD SVG 1.1//EN" "http://www.w3.org/Graphics/SVG/1.1/DTD/svg11.dtd">
<svg version="1.1" xmlns="http://www.w3.org/2000/svg" xmlns:xlink="http://www.w3.org/1999/xlink" x="0px" y="0px" width="170px"
	 height="170px" viewBox="0 0 170 170" enable-background="new 0 0 170 170" xml:space="preserve">
<g id="BNackground" display="none">
</g>
<g id="Layer_1">
</g>
<g id="Layer_2">
	<g display="none">
		
			<line display="inline" fill="none" stroke="#377ABC" stroke-width="0.25" stroke-miterlimit="10" x1="38.063" y1="17.782" x2="38.063" y2="145.546"/>
		
			<line display="inline" fill="none" stroke="#377ABC" stroke-width="0.25" stroke-miterlimit="10" x1="131.944" y1="17.782" x2="131.944" y2="145.546"/>
	</g>
	<g>
		<g>
			<polygon fill="#007EE5" points="65.484,22.922 37.86,40.959 56.96,56.255 84.813,39.056 			"/>
			<polygon fill="#007EE5" points="37.86,71.551 65.484,89.587 84.813,73.454 56.96,56.255 			"/>
			<polygon fill="#007EE5" points="84.813,73.454 104.144,89.587 131.768,71.551 112.667,56.255 			"/>
			<polygon fill="#007EE5" points="131.768,40.959 104.144,22.922 84.813,39.056 112.667,56.255 			"/>
			<polygon fill="#007EE5" points="84.87,76.925 65.484,93.012 57.188,87.595 57.188,93.667 84.87,110.268 112.553,93.667 
				112.553,87.595 104.258,93.012 			"/>
		</g>
		<g>
			<path fill="#007EE5" d="M38.267,138.499h5.685c1.657,0,3.995,0,5.912-1.491c2.339-1.783,3.541-5.414,3.541-9.467
				c0-10.634-6.725-10.667-10.038-10.667h-5.1V138.499z M43.01,120.603h0.811c1.917,0,4.549,0.228,4.549,6.873
				c0,7.068-2.664,7.295-4.549,7.295H43.01V120.603z"/>
			<path fill="#007EE5" d="M55.037,122.515v15.983h4.45v-6.905c0-1.232,0-4.928,3.28-4.928c0.162,0,0.357,0,0.746,0.065v-4.345
				c-0.227-0.064-0.453-0.097-0.779-0.097c-2.598,0-3.378,2.724-3.768,4.085v-3.858H55.037z"/>
			<path fill="#007EE5" d="M70.649,122.158c-4.775,0-6.528,3.34-6.528,8.333c0,5.154,1.882,8.331,6.496,8.331
				c4.678,0,6.528-3.208,6.528-8.331C77.146,125.499,75.393,122.158,70.649,122.158z M70.649,125.271
				c1.365,0,1.885,1.103,1.885,5.22c0,4.279-0.586,5.22-1.885,5.22c-1.333,0-1.917-0.974-1.917-5.22c0-3.923,0.455-5.22,1.885-5.22
				H70.649z"/>
			<path fill="#007EE5" d="M78.466,122.515v21.398h4.385v-6.581c0.488,0.519,1.3,1.394,3.054,1.394c5.1,0,5.425-6.16,5.425-8.43
				c0-2.69-0.52-5.187-2.078-6.775c-0.779-0.778-1.982-1.232-3.054-1.232c-2.176,0-3.054,1.588-3.606,2.626v-2.399H78.466z
				 M82.851,128.935c0-1.427,0-3.695,2.014-3.695c1.723,0,1.853,2.236,1.853,5.057c0,3.372-0.162,5.35-1.981,5.35
				c-1.885,0-1.885-1.362-1.885-3.664V128.935z"/>
			<path fill="#007EE5" d="M92.654,116.874v21.625h2.632c0.357-1.135,0.52-1.458,0.846-2.075c0.389,0.81,1.136,2.398,3.703,2.398
				c0.844,0,1.722-0.162,2.598-0.615c2.925-1.523,3.119-6.322,3.119-7.813c0-3.858-1.234-8.105-5.166-8.105
				c-1.916,0-2.791,1.038-3.346,1.719v-7.133H92.654z M97.04,128.157c0-0.811,0-1.621,0.521-2.238c0.325-0.42,0.845-0.68,1.43-0.68
				c1.267,0,1.948,1.069,1.948,5.284c0,4.117-0.616,5.219-2.014,5.219c-1.885,0-1.885-2.074-1.885-3.89V128.157z"/>
			<path fill="#007EE5" d="M113.198,122.158c-4.775,0-6.529,3.34-6.529,8.333c0,5.154,1.885,8.331,6.498,8.331
				c4.676,0,6.528-3.208,6.528-8.331C119.695,125.499,117.94,122.158,113.198,122.158z M113.198,125.271
				c1.364,0,1.885,1.103,1.885,5.22c0,4.279-0.585,5.22-1.885,5.22c-1.332,0-1.917-0.974-1.917-5.22c0-3.923,0.456-5.22,1.886-5.22
				H113.198z"/>
			<path fill="#007EE5" d="M119.521,122.515l4.127,7.814l-4.742,8.169h3.864l2.697-4.797l2.338,4.797h4.841l-4.775-8.948
				l4.124-7.036h-3.864l-2.047,3.696l-1.722-3.696H119.521z"/>
		</g>
	</g>
</g>
</svg>
